<svg
  xmlns="http://www.w3.org/2000/svg"
  width="64"
  height="64"
  viewBox="0 0 58.76 64"
>
  <path d="m11.12,36.08V7.91c0-3.39,2.77-6.16,6.16-6.16h24.2c3.39,0,6.16,2.77,6.16,6.16v22.99" fill="none" stroke="#1d1d1b" stroke-linecap="round" stroke-miterlimit="10" stroke-width="3.5"/>
  <path d="m47.65,41.42v14.66c0,3.39-2.77,6.16-6.16,6.16h-24.2c-3.39,0-6.16-2.77-6.16-6.16v-10.36" fill="none" stroke="#1d1d1b" stroke-linecap="round" stroke-miterlimit="10" stroke-width="3.5"/>
  <path d="m10.95,26.63c-.31.13-.78.32-1.33.58-1.41.65-3.12,1.45-4.91,2.88-.97.77-1.67,1.38-2.28,2.4-.46.78-.73,1.69-.67,2.58.01.21.04.41.1.61.34,1.37,1.5,2.39,2.72,3.12,4.68,2.79,10.79,2.65,16.06,2.6,5.96-.06,11.92-.78,17.73-2.13,5.66-1.31,11.45-3.15,15.99-6.93.86-.72,1.67-1.54,2.18-2.54.5-1,.67-2.23.22-3.26-.16-.38-.6-1.33-3.03-2.51-1.28-.62-3.32-1.42-6.08-1.69" fill="none" stroke="#1d1d1b" stroke-miterlimit="10" stroke-width="3.5"/>
</svg>